PathFileType	4	(X/Y/Z)	C:\Users\mayra\OneDrive - Universitat Pompeu Fabra\PhD_Mayra\OpenSim\aurel\ID_04_Walking_14.trc
DataRate	CameraRate	NumFrames	NumMarkers	Units	OrigDataRate	OrigDataStartFrame	OrigNumFrames
250.00	250.00	7	18	mm	250.00	1	1846
Frame#	Time	r.should			l.should			c7			r.asis			l.asis			sacrum			r.bar1			l.bar1			r.knee1			l.knee1			r.bar2			r.mall			l.bar2			l.mall			r.met			r.heel			l.heel			l.met			
		X1	Y1	Z1	X2	Y2	Z2	X3	Y3	Z3	X4	Y4	Z4	X5	Y5	Z5	X6	Y6	Z6	X7	Y7	Z7	X8	Y8	Z8	X9	Y9	Z9	X10	Y10	Z10	X11	Y11	Z11	X12	Y12	Z12	X13	Y13	Z13	X14	Y14	Z14	X15	Y15	Z15	X16	Y16	Z16	X17	Y17	Z17	X18	Y18	Z18	

951.0	3.804000	-850.651562	1242.274523	416.225195	-844.678819	1260.602117	144.865647	-931.585550	1315.019250	274.960071	-749.269247	872.130334	391.520619	-756.175458	862.824082	156.782225	-995.167732	912.668347	267.260909	-856.718719	796.153665	476.540744	-843.066216	757.387519	79.466552	-799.036384	454.408228	400.557816	-774.718165	464.220166	125.724018	-815.092564	391.037345	398.626745	-838.871121	60.061052	358.364820	-808.230042	402.673304	128.575459	-1046.388388	195.190713	173.893049	-699.627340	38.565375	334.035635	-893.071771	47.291860	311.492860	-1091.458917	226.125121	215.935528	-979.772091	78.807846	195.655733	
952.0	3.808000	-846.139312	1242.232561	415.605992	-840.634644	1260.934353	145.064563	-927.379489	1315.438747	275.245368	-745.227516	872.413695	392.137587	-752.095997	863.567531	156.919584	-990.988731	913.169563	267.674595	-851.649165	795.674205	476.433218	-838.634551	758.194387	79.612367	-797.412157	454.295576	400.701702	-766.641200	465.446919	126.242056	-813.942313	390.966326	398.799837	-838.806212	60.081221	358.332515	-799.567521	403.526396	129.011661	-1035.824180	193.510279	173.971564	-699.621499	38.559943	334.075779	-892.794013	47.123052	311.141551	-1081.477404	224.153221	215.907067	-967.876971	78.283928	196.032003	
953.0	3.812000	-841.741681	1242.621183	415.636331	-836.580753	1261.255026	145.248830	-923.159003	1315.821886	275.530815	-741.144598	872.755408	392.720222	-747.861147	864.263952	157.086045	-986.810386	913.645506	268.039525	-844.819307	795.135021	475.737065	-834.214568	758.937418	79.785831	-795.836687	454.184234	400.859624	-758.619010	466.659307	126.785189	-812.826455	390.894234	398.948222	-838.732839	60.096323	358.301073	-790.819168	404.249430	129.514739	-1025.162816	191.712499	174.125329	-699.620008	38.563900	334.118664	-887.587309	41.499794	305.807054	-1071.357131	221.944094	215.837657	-955.742419	77.592477	196.379632	
954.0	3.816000	-837.438881	1243.342757	416.220486	-832.570195	1261.573076	145.415157	-918.939292	1316.165686	275.832683	-737.229526	873.067617	393.293142	-743.864775	864.872873	157.243863	-982.649207	914.088845	268.390179	-839.907825	794.966578	475.353926	-829.811037	759.654701	79.984978	-794.320941	454.075545	401.048720	-750.688553	467.898786	127.342403	-811.702669	390.832484	399.076611	-838.648021	60.115170	358.273685	-782.039106	404.806435	130.044401	-1014.444470	189.792573	174.236417	-699.609101	38.555324	334.160149	-876.792192	29.305194	294.583201	-1061.125755	219.508797	215.758726	-943.415761	76.796673	196.687162	
955.0	3.820000	-833.266377	1244.384289	417.361438	-828.580141	1261.890054	145.568788	-914.734244	1316.493988	276.149571	-733.269334	873.395503	393.901587	-739.804804	865.430713	157.344729	-978.471458	914.490342	268.695742	-835.785508	794.951379	475.160241	-825.426698	760.304153	80.198228	-792.802274	453.937590	401.229173	-742.787361	469.097793	127.947524	-810.573339	390.762955	399.179339	-838.552892	60.128696	358.237714	-773.540437	405.529499	130.719587	-1003.518105	187.583447	174.374923	-699.586034	38.550645	334.203422	-874.090314	26.344694	291.760415	-1050.810814	216.895565	215.727895	-930.936992	75.918272	196.883544	
956.0	3.824000	-828.951955	1244.764805	417.404294	-824.565768	1262.184978	145.740569	-910.520971	1316.795707	276.448339	-729.369760	873.726845	394.472599	-735.660017	865.967870	157.567009	-974.298954	914.854825	268.985391	-832.085371	794.963300	475.092977	-821.107209	760.918438	80.369487	-791.305363	453.817189	401.403189	-734.943688	470.253348	128.585488	-809.447646	390.704542	399.301559	-838.446736	60.140081	358.192772	-765.097857	406.243861	131.417811	-992.474198	185.194701	174.518093	-699.555278	38.544096	334.260672	-873.385668	25.681015	291.015416	-1040.365458	214.079589	215.725705	-918.297172	74.985199	197.025388	
957.0	3.828000	-824.587166	1244.932175	417.191952	-820.554614	1262.447953	145.932943	-906.345248	1317.072868	276.752204	-725.563705	874.070585	395.011753	-731.496692	866.430163	157.711655	-970.140815	915.182948	269.259214	-828.883648	795.143306	475.277960	-816.760540	761.449456	80.594800	-789.851367	453.713059	401.585698	-727.227628	471.418500	129.270643	-808.314562	390.657425	399.413377	-838.344395	60.162958	358.153582	-756.754816	406.927198	132.136136	-981.389105	182.730213	174.625546	-699.533403	38.539290	334.322810	-878.057718	30.883919	295.834363	-1029.824734	211.067528	215.743542	-905.497849	73.963806	197.161198	
